<svg width="56" height="56" viewBox="0 0 56 56" fill="none" xmlns="http://www.w3.org/2000/svg">
<g clip-path="url(#clip0_105_5259)">
<path d="M11.6667 16.3335H14C15.2377 16.3335 16.4247 15.8418 17.2998 14.9667C18.175 14.0915 18.6667 12.9045 18.6667 11.6668C18.6667 11.048 18.9125 10.4545 19.3501 10.0169C19.7877 9.57933 20.3812 9.3335 21 9.3335H35C35.6188 9.3335 36.2123 9.57933 36.6499 10.0169C37.0875 10.4545 37.3333 11.048 37.3333 11.6668C37.3333 12.9045 37.825 14.0915 38.7002 14.9667C39.5753 15.8418 40.7623 16.3335 42 16.3335H44.3333C45.571 16.3335 46.758 16.8252 47.6332 17.7003C48.5083 18.5755 49 19.7625 49 21.0002V42.0002C49 43.2378 48.5083 44.4248 47.6332 45.3C46.758 46.1752 45.571 46.6668 44.3333 46.6668H11.6667C10.429 46.6668 9.242 46.1752 8.36683 45.3C7.49167 44.4248 7 43.2378 7 42.0002V21.0002C7 19.7625 7.49167 18.5755 8.36683 17.7003C9.242 16.8252 10.429 16.3335 11.6667 16.3335" stroke="white" stroke-width="2" stroke-linecap="round" stroke-linejoin="round"/>
<path d="M28 37.3335C31.866 37.3335 35 34.1995 35 30.3335C35 26.4675 31.866 23.3335 28 23.3335C24.134 23.3335 21 26.4675 21 30.3335C21 34.1995 24.134 37.3335 28 37.3335Z" stroke="white" stroke-width="2" stroke-linecap="round" stroke-linejoin="round"/>
</g>
<defs>
<clipPath id="clip0_105_5259">
<rect width="56" height="56" fill="white"/>
</clipPath>
</defs>
</svg>
