<svg width="56" height="56" viewBox="0 0 56 56" fill="none" xmlns="http://www.w3.org/2000/svg">
<g clip-path="url(#clip0_105_451)">
<path d="M16.333 30.3335H13.9997C11.4223 30.3335 9.33301 32.4228 9.33301 35.0002V42.0002C9.33301 44.5775 11.4223 46.6668 13.9997 46.6668H16.333C18.9103 46.6668 20.9997 44.5775 20.9997 42.0002V35.0002C20.9997 32.4228 18.9103 30.3335 16.333 30.3335Z" stroke="#0C000F" stroke-width="2" stroke-linecap="round" stroke-linejoin="round"/>
<path d="M42 30.3335H39.6667C37.0893 30.3335 35 32.4228 35 35.0002V42.0002C35 44.5775 37.0893 46.6668 39.6667 46.6668H42C44.5773 46.6668 46.6667 44.5775 46.6667 42.0002V35.0002C46.6667 32.4228 44.5773 30.3335 42 30.3335Z" stroke="#0C000F" stroke-width="2" stroke-linecap="round" stroke-linejoin="round"/>
<path d="M9.33301 35.0002V28.0002C9.33301 23.0495 11.2997 18.3015 14.8003 14.8008C18.301 11.3002 23.049 9.3335 27.9997 9.3335C32.9504 9.3335 37.6983 11.3002 41.199 14.8008C44.6997 18.3015 46.6663 23.0495 46.6663 28.0002V35.0002" stroke="#0C000F" stroke-width="2" stroke-linecap="round" stroke-linejoin="round"/>
</g>
<defs>
<clipPath id="clip0_105_451">
<rect width="56" height="56" fill="white"/>
</clipPath>
</defs>
</svg>
